<svg xmlns="http://www.w3.org/2000/svg" width="246.21" height="240.738" viewBox="0 0 246.21 240.738">
  <g id="boxes" transform="translate(-221.597 -748.009)">
    <g id="그룹_12" data-name="그룹 12" transform="translate(-26 82)">
      <path id="패스_64" data-name="패스 64" d="M2.453,0l179.9,41.384a3.234,3.234,0,0,1,2.4,2.927l.051,66.974a2.425,2.425,0,0,1-2.453,2.453L2.453,72.353C1.075,71.9.039,70.991.039,69.636L0,2.453A2.453,2.453,0,0,1,2.453,0Z" transform="translate(309 793.009)" fill="#eaedf2"/>
      <path id="패스_65" data-name="패스 65" d="M.572,0,42.547,9.656a.754.754,0,0,1,.56.683l.012,3.551a.566.566,0,0,1-.572.572L.572,4.806a.7.7,0,0,1-.563-.634L0,.572A.572.572,0,0,1,.572,0Z" transform="translate(320.263 808.518)" fill="#2b3039"/>
      <path id="패스_66" data-name="패스 66" d="M.572,0,81.778,18.743a.754.754,0,0,1,.56.683l.012,3.556a.566.566,0,0,1-.572.572L.572,4.811a.7.7,0,0,1-.563-.634L0,.572A.572.572,0,0,1,.572,0Z" transform="translate(320.263 817.103)" fill="#2b3039"/>
      <path id="패스_72" data-name="패스 72" d="M.572,0,55.013,12.343a.754.754,0,0,1,.56.683l.012,3.556a.566.566,0,0,1-.572.572L.572,4.811a.7.7,0,0,1-.563-.634L0,.572A.572.572,0,0,1,.572,0Z" transform="translate(320.263 833.103)" fill="#2b3039"/>
    </g>
    <g id="그룹_11" data-name="그룹 11" transform="translate(5 112)">
      <path id="패스_67" data-name="패스 67" d="M2.453,0l179.9,41.384a3.234,3.234,0,0,1,2.4,2.927l.051,36.438a2.425,2.425,0,0,1-2.453,2.453L2.453,41.818C1.075,41.368.039,40.456.039,39.1L0,2.453A2.453,2.453,0,0,1,2.453,0Z" transform="translate(216.597 685.009)" fill="#eaedf2"/>
      <path id="패스_68" data-name="패스 68" d="M.572,0,42.547,9.656a.754.754,0,0,1,.56.683l.012,3.551a.566.566,0,0,1-.572.572L.572,4.806a.7.7,0,0,1-.563-.634L0,.572A.572.572,0,0,1,.572,0Z" transform="translate(227.86 700.518)" fill="#2b3039"/>
      <path id="패스_69" data-name="패스 69" d="M.572,0,81.778,18.743a.754.754,0,0,1,.56.683l.012,3.556a.566.566,0,0,1-.572.572L.572,4.811a.7.7,0,0,1-.563-.634L0,.572A.572.572,0,0,1,.572,0Z" transform="translate(227.86 709.103)" fill="#2b3039"/>
    </g>
    <g id="그룹_13" data-name="그룹 13" transform="translate(66.403 63)">
      <path id="패스_67-2" data-name="패스 67" d="M2.453,0l179.9,41.384a3.234,3.234,0,0,1,2.4,2.927l.051,36.438a2.425,2.425,0,0,1-2.453,2.453L2.453,41.818C1.075,41.368.039,40.456.039,39.1L0,2.453A2.453,2.453,0,0,1,2.453,0Z" transform="translate(216.597 685.009)" fill="#eaedf2"/>
      <path id="패스_68-2" data-name="패스 68" d="M.572,0,59.193,13.665a.754.754,0,0,1,.56.683l.012,3.551a.566.566,0,0,1-.572.572L.572,4.806a.7.7,0,0,1-.563-.634L0,.572A.572.572,0,0,1,.572,0Z" transform="translate(227.86 700.518)" fill="#2b3039"/>
      <path id="패스_69-2" data-name="패스 69" d="M.572,0,35.743,8.1a.754.754,0,0,1,.56.683l.012,3.556a.566.566,0,0,1-.572.572L.572,4.811a.7.7,0,0,1-.563-.634L0,.572A.572.572,0,0,1,.572,0Z" transform="translate(227.86 709.103)" fill="#2b3039"/>
      <path id="패스_70" data-name="패스 70" d="M.572,0,35.743,8.1a.754.754,0,0,1,.56.683l.012,3.556a.566.566,0,0,1-.572.572L.572,4.811a.7.7,0,0,1-.563-.634L0,.572A.572.572,0,0,1,.572,0Z" transform="translate(266.86 718.2)" fill="#2b3039"/>
      <path id="패스_71" data-name="패스 71" d="M.572,0,35.743,8.1a.754.754,0,0,1,.56.683l.012,3.556a.566.566,0,0,1-.572.572L.572,4.811a.7.7,0,0,1-.563-.634L0,.572A.572.572,0,0,1,.572,0Z" transform="translate(306.86 727.6)" fill="#2b3039"/>
    </g>
  </g>
</svg>
