<svg xmlns="http://www.w3.org/2000/svg" width="707" height="707" viewBox="0 0 707 707">
  <g id="comments" transform="translate(-28.829 -391.633)">
    <rect id="사각형_32" data-name="사각형 32" width="707" height="707" transform="translate(28.829 391.633)" fill="none"/>
    <path id="background" d="M7392.866-2658.651c-81.092,2.9-146.007,81.211-200.771,162.31s-98.624,160.661-42.419,214.215,142.633-10.6,267.238,0,198.595,58.737,265.915-24.012-54.868-134.267-103.039-231.7S7473.958-2661.548,7392.866-2658.651Z" transform="translate(-7381.219 1337.437) rotate(14)" fill="#edf0f3"/>
    <g id="other" transform="translate(97 633)">
      <g id="패스_55" data-name="패스 55" transform="translate(0 0)" fill="#fff" stroke-linecap="round" stroke-linejoin="round">
        <path d="M 1.499998569488525 127.4186019897461 L 1.499998569488525 11.09156799316406 C 1.499998569488525 5.802768230438232 5.802748680114746 1.500018358230591 11.09154891967773 1.500018358230591 L 378.5916137695313 1.500018358230591 C 383.8804626464844 1.500018358230591 388.1831970214844 5.802768230438232 388.1831970214844 11.09156799316406 L 388.1831970214844 104.2605667114258 C 388.1831970214844 109.5493698120117 383.8804626464844 113.8521194458008 378.5916137695313 113.8521194458008 L 19.70909881591797 113.8521194458008 L 19.20039939880371 113.8521194458008 L 18.79659843444824 114.1615676879883 L 1.499998569488525 127.4186019897461 Z" stroke="none"/>
        <path d="M 11.091552734375 3.000015258789063 C 6.629852294921875 3.000015258789063 3 6.629867553710938 3 11.09156799316406 L 3 124.379020690918 L 17.88406372070313 112.9710693359375 C 18.40780639648438 112.5696716308594 19.0491943359375 112.3521194458008 19.70904541015625 112.3521194458008 L 378.5916137695313 112.3521194458008 C 383.0532836914063 112.3521194458008 386.6831970214844 108.7222671508789 386.6831970214844 104.2605667114258 L 386.6831970214844 11.09156799316406 C 386.6831970214844 6.629867553710938 383.0532836914063 3.000015258789063 378.5916137695313 3.000015258789063 L 11.091552734375 3.000015258789063 M 11.091552734375 1.52587890625e-05 L 378.5916137695313 1.52587890625e-05 C 384.7173461914063 1.52587890625e-05 389.6831970214844 4.965866088867188 389.6831970214844 11.09156799316406 L 389.6831970214844 104.2605667114258 C 389.6831970214844 110.3862686157227 384.7173461914063 115.3521194458008 378.5916137695313 115.3521194458008 L 19.70904541015625 115.3521194458008 L 0 130.4582214355469 L 0 11.09156799316406 C 0 4.965866088867188 4.965850830078125 1.52587890625e-05 11.091552734375 1.52587890625e-05 Z" stroke="none" fill="#2b3039"/>
      </g>
      <g id="그룹_10" data-name="그룹 10" transform="translate(26.989 29.577)">
        <rect id="사각형_14" data-name="사각형 14" width="187.077" height="14.049" rx="7.025" transform="translate(0 0)" fill="#2b3039"/>
        <rect id="사각형_15" data-name="사각형 15" width="73.204" height="11.092" rx="5.546" transform="translate(0 28.397)" fill="#2b3039"/>
        <rect id="사각형_16" data-name="사각형 16" width="124.965" height="11.092" rx="5.546" transform="translate(85.035 28.397)" fill="#2b3039"/>
        <rect id="사각형_17" data-name="사각형 17" width="46.585" height="11.092" rx="5.546" transform="translate(221.831 28.397)" fill="#2b3039"/>
      </g>
    </g>
    <g id="mine" transform="translate(272.246 783.106)">
      <g id="패스_55-2" data-name="패스 55" transform="translate(0 0)" fill="#2b3039" stroke-linecap="round" stroke-linejoin="round">
        <path d="M 388.1831970214844 127.4186019897461 L 370.8865966796875 114.1615676879883 L 370.4827880859375 113.8521194458008 L 369.9740905761719 113.8521194458008 L 11.09154891967773 113.8521194458008 C 5.802748680114746 113.8521194458008 1.499998569488525 109.5493698120117 1.499998569488525 104.2605667114258 L 1.499998569488525 11.09156799316406 C 1.499998569488525 5.802768230438232 5.802748680114746 1.500018358230591 11.09154891967773 1.500018358230591 L 378.5916137695313 1.500018358230591 C 383.8804626464844 1.500018358230591 388.1831970214844 5.802768230438232 388.1831970214844 11.09156799316406 L 388.1831970214844 127.4186019897461 Z" stroke="none"/>
        <path d="M 11.091552734375 3.000015258789063 C 6.629852294921875 3.000015258789063 3 6.629867553710938 3 11.09156799316406 L 3 104.2605667114258 C 3 108.7222671508789 6.629852294921875 112.3521194458008 11.091552734375 112.3521194458008 L 369.9740905761719 112.3521194458008 C 370.6339416503906 112.3521194458008 371.2753601074219 112.5696716308594 371.7990417480469 112.9710693359375 L 386.6831970214844 124.3790740966797 L 386.6831970214844 11.09156799316406 C 386.6831970214844 6.629867553710938 383.0532836914063 3.000015258789063 378.5916137695313 3.000015258789063 L 11.091552734375 3.000015258789063 M 11.091552734375 1.52587890625e-05 L 378.5916137695313 1.52587890625e-05 C 384.7173461914063 1.52587890625e-05 389.6831970214844 4.965866088867188 389.6831970214844 11.09156799316406 L 389.6831970214844 130.4582214355469 L 369.9740905761719 115.3521194458008 L 11.091552734375 115.3521194458008 C 4.965789794921875 115.3521194458008 0 110.3862686157227 0 104.2605667114258 L 0 11.09156799316406 C 0 4.965866088867188 4.965789794921875 1.52587890625e-05 11.091552734375 1.52587890625e-05 Z" stroke="none" fill="#2b3039"/>
      </g>
      <g id="그룹_10-2" data-name="그룹 10" transform="translate(26.989 29.577)">
        <rect id="사각형_14-2" data-name="사각형 14" width="219.613" height="14.049" rx="7.025" transform="translate(0 0)" fill="#fff"/>
        <rect id="사각형_15-2" data-name="사각형 15" width="82.881" height="11.092" rx="5.546" transform="translate(0 28.397)" fill="#fff"/>
        <rect id="사각형_16-2" data-name="사각형 16" width="191.396" height="11.092" rx="5.546" transform="translate(96.276 28.397)" fill="#fff"/>
      </g>
    </g>
  </g>
</svg>
