<svg xmlns="http://www.w3.org/2000/svg" width="156" height="156" viewBox="0 0 156 156">
  <g id="icon" transform="translate(-1612 1242.936)">
    <circle id="circle" cx="78" cy="78" r="78" transform="translate(1612 -1242.936)" fill="#2b3039"/>
    <path id="패스_14" data-name="패스 14" d="M24.66-18.861q-.052-1.881-.052-2.821a26.312,26.312,0,0,1,1.567-9.561,21.769,21.769,0,0,1,3.709-6.113,70.349,70.349,0,0,1,6.766-6.557q4.885-4.31,6.348-6.87a11.073,11.073,0,0,0,1.463-5.59,13.036,13.036,0,0,0-4.284-9.639,14.513,14.513,0,0,0-10.5-4.154A14.121,14.121,0,0,0,19.645-66.4q-4.023,3.762-5.277,11.755L4.7-55.8Q6.008-66.509,12.461-72.2T29.519-77.9q11.233,0,17.92,6.113A19.31,19.31,0,0,1,54.127-57a18.725,18.725,0,0,1-2.351,9.248q-2.351,4.232-9.2,10.292a46.557,46.557,0,0,0-6.008,6.008,13.394,13.394,0,0,0-2.09,4.441,37.207,37.207,0,0,0-.784,8.15ZM24.085,0V-10.71H34.8V0Z" transform="translate(1660 -1127.936)" fill="#fff"/>
    <rect id="square" width="55.662" height="6.325" transform="translate(1663.911 -1155.93)" fill="#fff"/>
    <rect id="square-2" data-name="square" width="55.662" height="6.325" transform="translate(1663.911 -1171.01)" fill="#fff"/>
  </g>
</svg>
