<svg xmlns="http://www.w3.org/2000/svg" width="583.032" height="62" viewBox="0 0 583.032 62">
  <g id="logo" transform="translate(-1605 1242.702)">
    <g id="icon" transform="translate(-7)">
      <circle id="circle" cx="31" cy="31" r="31" transform="translate(1612 -1242.702)" fill="#2b3039"/>
      <text id="_" data-name="?" transform="translate(1630.447 -1196.202)" fill="#fff" font-size="44" font-family="ArialMT, Arial"><tspan x="0" y="0">?</tspan></text>
      <rect id="square" width="22" height="2.5" transform="translate(1632 -1208.702)" fill="#fff"/>
      <rect id="square-2" data-name="square" width="22" height="2.5" transform="translate(1632 -1214.702)" fill="#fff"/>
    </g>
    <path id="패스_13" data-name="패스 13" d="M39.36,3.52,49.472-43.52H44.928L38.144-11.9,25.088-46.08,11.968-11.9,5.248-43.52H.64L10.816,3.52,25.088-34.368ZM59.392,0V-11.776q0-5.875,2.016-8.928a7.657,7.657,0,0,1,2.912-2.624,10.164,10.164,0,0,1,4.672-.928A4.524,4.524,0,0,1,73.12-22.3a8.55,8.55,0,0,1,1.248,4.7V0h4.48V-17.6a11.777,11.777,0,0,0-2.56-7.9,9.107,9.107,0,0,0-3.136-2.368,11.617,11.617,0,0,0-4.864-.864,9.215,9.215,0,0,0-5.312,1.568,11.991,11.991,0,0,0-3.584,3.848V-48h-4.48V0Zm50.5-14.08a10.176,10.176,0,0,1-2.848,7.168A9.281,9.281,0,0,1,99.968-3.84,9.281,9.281,0,0,1,92.9-6.912a10.176,10.176,0,0,1-2.848-7.168A10.176,10.176,0,0,1,92.9-21.248a9.281,9.281,0,0,1,7.072-3.072,9.281,9.281,0,0,1,7.072,3.072A10.176,10.176,0,0,1,109.888-14.08ZM114.368,0V-28.16h-4.48v4.809q-.377-.494-.8-.969a12.645,12.645,0,0,0-9.824-4.48,12.645,12.645,0,0,0-9.824,4.48,14.9,14.9,0,0,0-3.872,10.24A14.9,14.9,0,0,0,89.44-3.84,12.645,12.645,0,0,0,99.264.64a12.645,12.645,0,0,0,9.824-4.48q.423-.475.8-.969V0Zm6.08-24h7.04V0h4.48V-24h6.976v-4.16h-6.976V-39.1h-4.48V-28.16h-7.04Zm28.1-24h-5.5l1.088,16.128h3.264ZM160.177-4.011a6.284,6.284,0,0,1-2.414-3.861h-4.739q1.457,8.7,11.252,8.7a16.018,16.018,0,0,0,4.258-.54,12.426,12.426,0,0,0,3.62-1.627q3.259-2.162,3.259-6.716a6.907,6.907,0,0,0-4.347-6.622,18.9,18.9,0,0,0-4.038-1.378q-2.139-.483-4-1.063a11.246,11.246,0,0,1-3.111-1.456,3.158,3.158,0,0,1-1.276-2.787,3.063,3.063,0,0,1,1.535-2.821,6.8,6.8,0,0,1,3.593-.91,7.481,7.481,0,0,1,3.549.775,4.9,4.9,0,0,1,2.187,3.129h4.8q-.905-4.267-3.6-5.929A12.76,12.76,0,0,0,163.9-28.8a11.605,11.605,0,0,0-7.04,2.163,7.369,7.369,0,0,0-2.95,6.352,6.175,6.175,0,0,0,1.084,3.641,7.884,7.884,0,0,0,3.262,2.546,21.707,21.707,0,0,0,4.023,1.379q2.139.515,4,1.127,4.4,1.433,4.4,4.113,0,4.6-6.15,4.6A7.678,7.678,0,0,1,160.177-4.011ZM178.3-39.488h10.56V-.128h4.48v-39.36H203.9v-4.16H178.3ZM214.464,0V-11.776q0-5.875,2.016-8.928a7.656,7.656,0,0,1,2.912-2.624,10.164,10.164,0,0,1,4.672-.928,4.524,4.524,0,0,1,4.128,1.952,8.55,8.55,0,0,1,1.248,4.7V0h4.48V-17.6a11.777,11.777,0,0,0-2.56-7.9,9.107,9.107,0,0,0-3.136-2.368,11.617,11.617,0,0,0-4.864-.864,9.215,9.215,0,0,0-5.312,1.568,11.991,11.991,0,0,0-3.584,3.848V-48h-4.48V0ZM270.08-14.72a13.417,13.417,0,0,0-4.448-10.048,14.408,14.408,0,0,0-10.272-4.16,14.177,14.177,0,0,0-10.4,4.32,14.177,14.177,0,0,0-4.32,10.4A14,14,0,0,0,244.96-3.84,15.244,15.244,0,0,0,249.632-.7a16.036,16.036,0,0,0,6.4,1.152,13.426,13.426,0,0,0,7.36-2.336A14.336,14.336,0,0,0,268.8-8.256h-5.12a10.352,10.352,0,0,1-3.68,3.1,10.124,10.124,0,0,1-4.64,1.12A10.118,10.118,0,0,1,248.832-6.4a9.6,9.6,0,0,1-3.52-5.952H270.08Zm-4.736-1.472H245.376a9.946,9.946,0,0,1,1.344-3.3,9.781,9.781,0,0,1,8.64-4.96,9.693,9.693,0,0,1,6.368,2.3A10.347,10.347,0,0,1,265.344-16.192Zm16.576-5.393V-39.249h10.112a8.438,8.438,0,0,1,6.336,2.432,8.631,8.631,0,0,1,2.368,6.285,8.836,8.836,0,0,1-2.5,6.419,8.3,8.3,0,0,1-6.208,2.528Zm23.3-8.832a12.275,12.275,0,0,0-4.064-9.472,13.926,13.926,0,0,0-9.76-3.648H277.44V-.017h4.48V-17.233h9.472a13.771,13.771,0,0,0,9.76-3.68A12.447,12.447,0,0,0,305.216-30.417Zm20.544,8.081V-28.16a7.076,7.076,0,0,0-2.816-.576q-4.727,0-6.976,5.248l-.192,1.152V-28.16H311.3V0h4.48V-14.08a12.244,12.244,0,0,1,1.6-6.24,8.506,8.506,0,0,1,2.08-2.432,4.675,4.675,0,0,1,3-.992A4.846,4.846,0,0,1,325.76-22.336Zm28.48,8.128a9.787,9.787,0,0,1-3.008,7.168A9.86,9.86,0,0,1,344-4.032a9.86,9.86,0,0,1-7.232-3.008,9.787,9.787,0,0,1-3.008-7.168,9.86,9.86,0,0,1,3.008-7.232A9.86,9.86,0,0,1,344-24.448a9.86,9.86,0,0,1,7.232,3.008A9.86,9.86,0,0,1,354.24-14.208Zm4.48,0a14.177,14.177,0,0,0-4.32-10.4,14.177,14.177,0,0,0-10.4-4.32,14.177,14.177,0,0,0-10.4,4.32,14.177,14.177,0,0,0-4.32,10.4A14,14,0,0,0,333.6-3.84,14.31,14.31,0,0,0,344,.448,14.31,14.31,0,0,0,354.4-3.84,14,14,0,0,0,358.72-14.208ZM370.88,0V-4.809q.377.494.8.969A12.645,12.645,0,0,0,381.5.64a12.645,12.645,0,0,0,9.824-4.48A14.9,14.9,0,0,0,395.2-14.08a14.9,14.9,0,0,0-3.872-10.24A12.645,12.645,0,0,0,381.5-28.8a12.645,12.645,0,0,0-9.824,4.48q-.423.475-.8.969V-48H366.4V0Zm19.84-14.08a10.176,10.176,0,0,1-2.848,7.168A9.281,9.281,0,0,1,380.8-3.84a9.281,9.281,0,0,1-7.072-3.072,10.176,10.176,0,0,1-2.848-7.168,10.176,10.176,0,0,1,2.848-7.168A9.281,9.281,0,0,1,380.8-24.32a9.281,9.281,0,0,1,7.072,3.072A10.176,10.176,0,0,1,390.72-14.08ZM407.36,0V-48h-4.48V0Zm37.12-14.72a13.417,13.417,0,0,0-4.448-10.048,14.408,14.408,0,0,0-10.272-4.16,14.177,14.177,0,0,0-10.4,4.32,14.177,14.177,0,0,0-4.32,10.4A14,14,0,0,0,419.36-3.84,15.244,15.244,0,0,0,424.032-.7a16.036,16.036,0,0,0,6.4,1.152,13.426,13.426,0,0,0,7.36-2.336A14.337,14.337,0,0,0,443.2-8.256h-5.12a10.352,10.352,0,0,1-3.68,3.1,10.124,10.124,0,0,1-4.64,1.12A10.118,10.118,0,0,1,423.232-6.4a9.6,9.6,0,0,1-3.52-5.952H444.48Zm-4.736-1.472H419.776a9.946,9.946,0,0,1,1.344-3.3,9.781,9.781,0,0,1,8.64-4.96,9.693,9.693,0,0,1,6.368,2.3A10.347,10.347,0,0,1,439.744-16.192ZM487.552-.128h4.48v-17.6a12.425,12.425,0,0,0-2.336-7.808A8.825,8.825,0,0,0,486.72-28a10.33,10.33,0,0,0-4.736-.928,8.548,8.548,0,0,0-5.152,1.6,11.585,11.585,0,0,0-3.3,3.75,10.217,10.217,0,0,0-1.183-1.958A8.825,8.825,0,0,0,469.376-28a10.33,10.33,0,0,0-4.736-.928,8.548,8.548,0,0,0-5.152,1.6A11.514,11.514,0,0,0,456.32-23.8v-4.487h-4.48V-.128h4.48V-14.535a14.724,14.724,0,0,1,1.728-5.817A8.655,8.655,0,0,1,460.8-23.3a6.568,6.568,0,0,1,3.712-1.152,5.614,5.614,0,0,1,2.944.608q2.752,1.743,2.752,6.112v17.6h4.48v-17.6q0-.553-.031-1.082a11.819,11.819,0,0,1,.735-1.542,8.655,8.655,0,0,1,2.752-2.944,6.568,6.568,0,0,1,3.712-1.152,5.614,5.614,0,0,1,2.944.608q2.752,1.743,2.752,6.112Z" transform="translate(1696 -1188.702)" fill="#2b3039"/>
  </g>
</svg>
