<svg xmlns="http://www.w3.org/2000/svg" width="194.973" height="20.734" viewBox="0 0 194.973 20.734">
  <g id="logo_white" transform="translate(-1605 1242.702)">
    <g id="icon" transform="translate(1605 -1242.702)">
      <circle id="circle" cx="10.367" cy="10.367" r="10.367" transform="translate(0 0)" fill="#fff"/>
      <path id="패스_73" data-name="패스 73" d="M4.678-23.915q-.007-.259-.007-.388a3.618,3.618,0,0,1,.216-1.315,2.994,2.994,0,0,1,.51-.841,9.674,9.674,0,0,1,.93-.9A4.394,4.394,0,0,0,7.2-28.3a1.523,1.523,0,0,0,.2-.769A1.793,1.793,0,0,0,6.812-30.4a2,2,0,0,0-1.444-.571,1.942,1.942,0,0,0-1.379.517,2.725,2.725,0,0,0-.726,1.617l-1.329-.158A3.436,3.436,0,0,1,3-31.25a3.415,3.415,0,0,1,2.346-.783,3.511,3.511,0,0,1,2.464.841,2.655,2.655,0,0,1,.92,2.033,2.575,2.575,0,0,1-.323,1.272,6.028,6.028,0,0,1-1.264,1.415,6.4,6.4,0,0,0-.826.826,1.842,1.842,0,0,0-.287.611,5.117,5.117,0,0,0-.108,1.121ZM4.6-21.321v-1.473H6.072v1.473Z" transform="translate(4.882 36.871)" fill="#2b3039"/>
      <rect id="square" width="7.357" height="0.836" transform="translate(6.688 11.37)" fill="#2b3039"/>
      <rect id="square-2" data-name="square" width="7.357" height="0.836" transform="translate(6.688 9.364)" fill="#2b3039"/>
    </g>
    <path id="패스_13" data-name="패스 13" d="M13.588-30.771,16.97-46.5H15.45L13.182-35.929,8.816-47.358,4.428-35.929,2.181-46.5H.64l3.4,15.731,4.773-12.67Zm6.7-1.177v-3.938a5.438,5.438,0,0,1,.674-2.986,2.56,2.56,0,0,1,.974-.878,3.4,3.4,0,0,1,1.562-.31,1.513,1.513,0,0,1,1.38.653,2.859,2.859,0,0,1,.417,1.573v5.886h1.5v-5.886a3.938,3.938,0,0,0-.856-2.643,3.045,3.045,0,0,0-1.049-.792,3.885,3.885,0,0,0-1.627-.289,3.082,3.082,0,0,0-1.776.524,4.01,4.01,0,0,0-1.2,1.287V-48h-1.5v16.052Zm16.886-4.709a3.4,3.4,0,0,1-.952,2.4,3.1,3.1,0,0,1-2.365,1.027,3.1,3.1,0,0,1-2.365-1.027,3.4,3.4,0,0,1-.952-2.4,3.4,3.4,0,0,1,.952-2.4,3.1,3.1,0,0,1,2.365-1.027,3.1,3.1,0,0,1,2.365,1.027A3.4,3.4,0,0,1,37.174-36.657Zm1.5,4.709v-9.417h-1.5v1.608q-.126-.165-.268-.324a4.229,4.229,0,0,0-3.285-1.5,4.229,4.229,0,0,0-3.285,1.5,4.982,4.982,0,0,0-1.295,3.424,4.982,4.982,0,0,0,1.295,3.424,4.229,4.229,0,0,0,3.285,1.5,4.229,4.229,0,0,0,3.285-1.5q.141-.159.268-.324v1.608Zm2.033-8.026h2.354v8.026h1.5v-8.026H46.89v-1.391H44.558v-3.66h-1.5v3.66H40.705ZM50.1-48H48.26l.364,5.393h1.092Zm3.89,14.711a2.1,2.1,0,0,1-.807-1.291H51.6q.487,2.911,3.763,2.911a5.357,5.357,0,0,0,1.424-.181A4.155,4.155,0,0,0,58-32.395a2.5,2.5,0,0,0,1.09-2.246,2.31,2.31,0,0,0-1.454-2.215,6.321,6.321,0,0,0-1.35-.461q-.715-.161-1.336-.355a3.761,3.761,0,0,1-1.04-.487,1.056,1.056,0,0,1-.427-.932,1.024,1.024,0,0,1,.513-.943,2.275,2.275,0,0,1,1.2-.3,2.5,2.5,0,0,1,1.187.259,1.638,1.638,0,0,1,.731,1.046h1.606a2.889,2.889,0,0,0-1.2-1.983,4.267,4.267,0,0,0-2.277-.564,3.881,3.881,0,0,0-2.354.723,2.464,2.464,0,0,0-.986,2.124,2.065,2.065,0,0,0,.363,1.217,2.637,2.637,0,0,0,1.091.852,7.259,7.259,0,0,0,1.345.461q.715.172,1.336.377,1.472.479,1.472,1.376,0,1.538-2.057,1.538A2.568,2.568,0,0,1,53.991-33.289Zm6.062-11.864h3.531v13.162h1.5V-45.153h3.531v-1.391H60.053ZM72.145-31.948v-3.938a5.438,5.438,0,0,1,.674-2.986,2.56,2.56,0,0,1,.974-.878,3.4,3.4,0,0,1,1.562-.31,1.513,1.513,0,0,1,1.38.653,2.859,2.859,0,0,1,.417,1.573v5.886h1.5v-5.886a3.938,3.938,0,0,0-.856-2.643,3.046,3.046,0,0,0-1.049-.792,3.885,3.885,0,0,0-1.627-.289,3.082,3.082,0,0,0-1.776.524,4.01,4.01,0,0,0-1.2,1.287V-48h-1.5v16.052Zm18.6-4.923a4.487,4.487,0,0,0-1.487-3.36,4.818,4.818,0,0,0-3.435-1.391,4.741,4.741,0,0,0-3.478,1.445A4.741,4.741,0,0,0,80.9-36.7a4.68,4.68,0,0,0,1.445,3.467,5.1,5.1,0,0,0,1.562,1.049,5.363,5.363,0,0,0,2.14.385,4.49,4.49,0,0,0,2.461-.781,4.794,4.794,0,0,0,1.808-2.13H88.6a3.462,3.462,0,0,1-1.231,1.038,3.386,3.386,0,0,1-1.552.375,3.384,3.384,0,0,1-2.183-.792,3.21,3.21,0,0,1-1.177-1.99h8.283Zm-1.584-.492H82.483a3.326,3.326,0,0,1,.449-1.1,3.271,3.271,0,0,1,2.889-1.659,3.241,3.241,0,0,1,2.13.77A3.46,3.46,0,0,1,89.16-37.363Zm5.543-1.8v-5.907h3.382a2.822,2.822,0,0,1,2.119.813,2.886,2.886,0,0,1,.792,2.1,2.955,2.955,0,0,1-.835,2.146,2.775,2.775,0,0,1-2.076.845Zm7.79-2.954a4.1,4.1,0,0,0-1.359-3.168,4.657,4.657,0,0,0-3.264-1.22H93.205v14.554h1.5v-5.757h3.168a4.605,4.605,0,0,0,3.264-1.231A4.163,4.163,0,0,0,102.494-42.12Zm6.87,2.7v-1.948a2.366,2.366,0,0,0-.942-.193,2.471,2.471,0,0,0-2.333,1.755l-.064.385v-1.948h-1.5v9.417h1.5v-4.709a4.1,4.1,0,0,1,.535-2.087,2.844,2.844,0,0,1,.7-.813,1.563,1.563,0,0,1,1-.332A1.62,1.62,0,0,1,109.364-39.418Zm9.524,2.718a3.273,3.273,0,0,1-1.006,2.4,3.3,3.3,0,0,1-2.418,1.006,3.3,3.3,0,0,1-2.418-1.006,3.273,3.273,0,0,1-1.006-2.4,3.3,3.3,0,0,1,1.006-2.418,3.3,3.3,0,0,1,2.418-1.006,3.3,3.3,0,0,1,2.418,1.006A3.3,3.3,0,0,1,118.888-36.7Zm1.5,0a4.741,4.741,0,0,0-1.445-3.478,4.741,4.741,0,0,0-3.478-1.445,4.741,4.741,0,0,0-3.478,1.445,4.741,4.741,0,0,0-1.445,3.478,4.68,4.68,0,0,0,1.445,3.467,4.786,4.786,0,0,0,3.478,1.434,4.786,4.786,0,0,0,3.478-1.434A4.68,4.68,0,0,0,120.386-36.7Zm4.066,4.751v-1.608q.126.165.268.324a4.229,4.229,0,0,0,3.285,1.5,4.229,4.229,0,0,0,3.285-1.5,4.982,4.982,0,0,0,1.295-3.424,4.982,4.982,0,0,0-1.295-3.424,4.229,4.229,0,0,0-3.285-1.5,4.229,4.229,0,0,0-3.285,1.5q-.141.159-.268.324V-48h-1.5v16.052Zm6.635-4.709a3.4,3.4,0,0,1-.952,2.4,3.1,3.1,0,0,1-2.365,1.027,3.1,3.1,0,0,1-2.365-1.027,3.4,3.4,0,0,1-.952-2.4,3.4,3.4,0,0,1,.952-2.4,3.1,3.1,0,0,1,2.365-1.027,3.1,3.1,0,0,1,2.365,1.027A3.4,3.4,0,0,1,131.087-36.657Zm5.565,4.709V-48h-1.5v16.052Zm12.413-4.923a4.487,4.487,0,0,0-1.487-3.36,4.818,4.818,0,0,0-3.435-1.391,4.741,4.741,0,0,0-3.478,1.445A4.741,4.741,0,0,0,139.22-36.7a4.68,4.68,0,0,0,1.445,3.467,5.1,5.1,0,0,0,1.562,1.049,5.362,5.362,0,0,0,2.14.385,4.49,4.49,0,0,0,2.461-.781,4.794,4.794,0,0,0,1.809-2.13h-1.712a3.462,3.462,0,0,1-1.231,1.038,3.386,3.386,0,0,1-1.552.375,3.384,3.384,0,0,1-2.183-.792,3.21,3.21,0,0,1-1.177-1.99h8.283Zm-1.584-.492H140.8a3.326,3.326,0,0,1,.449-1.1,3.271,3.271,0,0,1,2.889-1.659,3.241,3.241,0,0,1,2.13.77A3.46,3.46,0,0,1,147.482-37.363Zm15.988,5.372h1.5v-5.886a4.155,4.155,0,0,0-.781-2.611,2.951,2.951,0,0,0-1-.824,3.454,3.454,0,0,0-1.584-.31,2.858,2.858,0,0,0-1.723.535,3.874,3.874,0,0,0-1.1,1.254,3.417,3.417,0,0,0-.4-.655,2.951,2.951,0,0,0-1-.824,3.454,3.454,0,0,0-1.584-.31,2.858,2.858,0,0,0-1.723.535,3.85,3.85,0,0,0-1.059,1.18v-1.5h-1.5v9.417h1.5v-4.818a4.924,4.924,0,0,1,.578-1.945,2.894,2.894,0,0,1,.92-.985,2.2,2.2,0,0,1,1.241-.385,1.877,1.877,0,0,1,.984.2,2.228,2.228,0,0,1,.92,2.044v5.886h1.5v-5.886q0-.185-.01-.362a3.952,3.952,0,0,1,.246-.516,2.894,2.894,0,0,1,.92-.985,2.2,2.2,0,0,1,1.241-.385,1.877,1.877,0,0,1,.985.2,2.228,2.228,0,0,1,.92,2.044Z" transform="translate(1635.006 -1192.696)" fill="#fff"/>
  </g>
</svg>
