<svg xmlns="http://www.w3.org/2000/svg" width="452.159" height="369.385" viewBox="0 0 452.159 369.385">
  <g id="person" transform="translate(-501.595 -469.171)">
    <path id="hair" d="M115.333,20.363c20.088,18.921,20.495,38.767,16.122,60.144s-20.508,33.819-21.973,35.676c-18,22.89-42.9,23.155-67.248,15.141-3.172-10.254-25.288-19.908-34.767-38.6S1.4,46.316,11.78,30.253,44.951,3.106,57.525,6.258C63.994.16,95.245,1.442,115.333,20.363Z" transform="translate(610.116 484.807) rotate(-8)"/>
    <g id="body" transform="translate(583.711 597.647)">
      <path id="패스_274" data-name="패스 274" d="M2363.7,3840.959c-54.234,2.744-51.943-3.228-95.52,32.682a86.7,86.7,0,0,0-30.709,85.1s70.691,14.909,141.5,16.4a640.067,640.067,0,0,0,128.3-10.37s-13.066-60.149-38.256-86.143S2417.947,3838.218,2363.7,3840.959Z" transform="translate(-2235.699 -3810.277)" fill="#454c57"/>
      <path id="패스_275" data-name="패스 275" d="M2283.3,3823.906c.186,1.388,3.154,31.938,3.154,31.938s2.842,6.345,16.014,4.6,14.781-8.94,14.781-8.94l-5.937-30.9Z" transform="translate(-2178.03 -3820.606)" fill="#fff"/>
      <path id="패스_276" data-name="패스 276" d="M2284.68,3843.954c.05.038,23.2,18.4,38.622-.842" transform="translate(-2184.085 -3811.27)" fill="none" stroke="#000" stroke-linecap="round" stroke-width="2"/>
      <path id="패스_277" data-name="패스 277" d="M2331.86,3870.4l5.084,35.578" transform="translate(-2127.817 -3757.792)" fill="none" stroke="#000" stroke-linecap="round" stroke-width="2"/>
    </g>
    <path id="face" d="M2325.422,3878.92c21.467-4.4,33.734-29.449,28.967-58.223s-25.9-50.437-51.457-47.07-42.932,27.76-35.772,65.347S2303.956,3883.316,2325.422,3878.92Z" transform="translate(-1616.748 -3272.078)" fill="#fff"/>
    <path id="ear" d="M2272.591,3793.69s-15.727.605-13.731,14.483,17.712,9.607,17.712,9.607Z" transform="translate(-1622.088 -3239.074)" fill="#fff"/>
    <g id="table" transform="translate(502.236 742.005)">
      <path id="패스_284" data-name="패스 284" d="M3451.691,3409.388l450.185-8.828s2.833,92.452-234.941,96.425S3451.691,3409.388,3451.691,3409.388Z" transform="translate(-3451.119 -3400.56)" fill="#fff"/>
      <path id="패스_285" data-name="패스 285" d="M3901.842,3400.56l-450.629,9.2" transform="translate(-3451.089 -3400.559)" fill="none" stroke="#000" stroke-linecap="round" stroke-width="1.5"/>
    </g>
    <g id="arm" transform="translate(557.783 577.147) rotate(-4.992)">
      <g id="hand" transform="translate(88.86 0) rotate(5)">
        <path id="패스_290" data-name="패스 290" d="M8.286,2.49S-.659-4.369.039,4.681s16.483,11,16.483,11Z" transform="translate(0 14.77)" fill="#fff" stroke="#000" stroke-width="1.5"/>
        <path id="패스_287" data-name="패스 287" d="M14.612,61.249l27.911,2.162s5.69-19.033,5.99-29.311S43.49,23.737,35.634,18.5,30.288,4.047,24.837.793,18.55,5.345,18.55,5.345,16.309.676,12.357.793,8.366,5.345,8.366,5.345,4.291,3.028,1.75,6.331-1.807,20,7.586,29.576s9.11,9.069,9,17.326A57.354,57.354,0,0,1,14.612,61.249Z" transform="translate(6.169 0)" fill="#fff" stroke="#000" stroke-width="1.5"/>
        <path id="패스_288" data-name="패스 288" d="M0,0S.029,6.019,2.622,9.329" transform="translate(14.517 5.106)" fill="#fff" stroke="#000" stroke-linecap="round" stroke-width="1.5"/>
        <path id="패스_289" data-name="패스 289" d="M0,0S.952,7.174,4.352,10.485" transform="translate(24.886 5.108)" fill="#fff" stroke="#000" stroke-linecap="round" stroke-width="1.5"/>
      </g>
      <path id="패스_271" data-name="패스 271" d="M107.841,0S23.342,45.269,5.34,85.7s13.491,49.717,35.49,42.64,60.658-31.354,76.813-65.4C126.9,43.82,132.092,23.225,138.052,2.845a54.2,54.2,0,0,1-19.523,1.36C109.254,2.759,107.841,0,107.841,0Z" transform="translate(0 66.775) rotate(-7)" fill="#454c57"/>
      <path id="패스_283" data-name="패스 283" d="M108.24,0s-20.6,28.3-44.875,48.918S-.288,68.241,0,40.215" transform="translate(8.83 133.657) rotate(-7)" fill="none" stroke="#000" stroke-linecap="round" stroke-width="2"/>
      <path id="패스_286" data-name="패스 286" d="M0,.981S10.033,7.733,29.7,0" transform="translate(107.123 52.892)" fill="none" stroke="#000" stroke-linecap="round" stroke-width="1.5"/>
    </g>
    <g id="eyes" transform="translate(670.799 537.586)">
      <ellipse id="타원_17" data-name="타원 17" cx="4.31" cy="5.173" rx="4.31" ry="5.173" transform="translate(0 6.897)" fill="#1e1e1e"/>
      <ellipse id="타원_18" data-name="타원 18" cx="4.31" cy="5.173" rx="4.31" ry="5.173" transform="translate(37.932 0)" fill="#1e1e1e"/>
    </g>
    <path id="패스_291" data-name="패스 291" d="M633.547,556.3s-91.731,75.178-81.877,129.864" transform="translate(35.259 65.054)" fill="none" stroke="#000" stroke-width="2"/>
    <path id="패스_301" data-name="패스 301" d="M610.873,518.862s10.714-2.093,16.192,1.074" transform="translate(76.949 37.451)" fill="none" stroke="#1e1e1e" stroke-linecap="round" stroke-width="1.5"/>
    <path id="패스_307" data-name="패스 307" d="M.01,45.564C6.509,22.82,31.82,22.929,33.552,22.929s-4.769-4.114-4.769-4.114,27.509,4.981,29.458,5.2-6.281-6.066-6.281-6.066,13.243,1,21.371,6.066A29.38,29.38,0,0,1,84.475,38.2c.65,0-5-17.878-5-17.878S68.643-7.831,33.552,2.135.01,45.564.01,45.564Z" transform="translate(642.159 501.578) rotate(-8)"/>
    <path id="패스_308" data-name="패스 308" d="M666.547,552.2s-1.14,37.082-27.908,42.717" transform="translate(72.918 9.87)" fill="none" stroke="#000" stroke-linecap="round" stroke-width="2"/>
    <path id="패스_309" data-name="패스 309" d="M642.238,575.982l5.209,26.4" transform="translate(75.524 27.092)" fill="none" stroke="#000" stroke-linecap="round" stroke-width="2"/>
    <g id="laptop" transform="translate(724.345 693.726)">
      <g id="패스_17" data-name="패스 17" transform="translate(28.608 2.453)" fill="#95999f" stroke-linecap="round" stroke-linejoin="round">
        <path d="M 10.17757320404053 86.79582214355469 L 10.10083389282227 86.74871826171875 L -28.73866653442383 62.91152191162109 L -29.33022689819336 62.5484619140625 L -28.64304733276367 62.45092391967773 L 82.25875091552734 46.71000289916992 L 82.34791564941406 46.69734191894531 L 82.42465209960938 46.74444198608398 L 121.2641372680664 70.58164215087891 L 121.8556900024414 70.9447021484375 L 121.1685104370117 71.04224395751953 L 10.26673316955566 86.78316497802734 L 10.17757320404053 86.79582214355469 Z" stroke="none"/>
        <path d="M 82.29387664794922 46.95751953125 L -28.60791015625 62.69844055175781 L 10.23157501220703 86.53564453125 L 121.1333770751953 70.79472351074219 L 82.29387664794922 46.95751953125 M 82.29388427734375 46.45751953125 C 82.38575744628906 46.45751953125 82.47633361816406 46.48284149169922 82.55541229248047 46.53137969970703 L 121.3949127197266 70.36858367919922 C 121.574592590332 70.47884368896484 121.6657943725586 70.68995666503906 121.622932434082 70.89637756347656 C 121.580078125 71.102783203125 121.412353515625 71.26014709472656 121.2036361694336 71.28976440429688 L 10.30183410644531 87.03068542480469 C 10.27845001220703 87.03399658203125 10.25495147705078 87.03564453125 10.23155975341797 87.03564453125 C 10.13969421386719 87.03564453125 10.04911804199219 87.01032257080078 9.97003173828125 86.96177673339844 L -28.86944580078125 63.12458038330078 C -29.04912567138672 63.01432037353516 -29.14032745361328 62.80319976806641 -29.09746551513672 62.59677886962891 C -29.05460357666016 62.390380859375 -28.88688659667969 62.23302459716797 -28.67816925048828 62.20339965820313 L 82.22361755371094 46.46247863769531 C 82.24700164794922 46.45915985107422 82.27049255371094 46.45751953125 82.29388427734375 46.45751953125 Z" stroke="none" fill="#000"/>
      </g>
      <g id="패스_16" data-name="패스 16" transform="translate(30.536)" fill="#9fa2a7" stroke-linecap="round" stroke-linejoin="round">
        <path d="M 7.803708076477051 89.56418609619141 L 7.803708076477051 88.98820495605469 L 7.803708076477051 15.74093151092529 L 7.803708076477051 15.30688858032227 L 8.233450889587402 15.24588775634766 L 119.13525390625 -0.4950403869152069 L 119.7055053710938 -0.5759832262992859 L 119.7055053710938 2.478027454344556e-06 L 119.7055053710938 73.24727630615234 L 119.7055053710938 73.68132019042969 L 119.275764465332 73.74231719970703 L 8.373965263366699 89.48324584960938 L 7.803708076477051 89.56418609619141 Z" stroke="none"/>
        <path d="M 119.2054977416992 -7.62939453125e-06 L 8.303718566894531 15.74093627929688 L 8.303718566894531 88.98821258544922 L 119.2054977416992 73.24726867675781 L 119.2054977416992 -7.62939453125e-06 M 119.2055511474609 -1.000015258789063 C 119.4448318481445 -1.000015258789063 119.6780014038086 -0.9140625 119.8610382080078 -0.755157470703125 C 120.0798416137695 -0.5652389526367188 120.2054977416992 -0.2897415161132813 120.2054977416992 -7.62939453125e-06 L 120.2054977416992 73.24726867675781 C 120.2054977416992 73.74526977539063 119.8390884399414 74.16736602783203 119.3460235595703 74.23735046386719 L 8.444236755371094 89.97828674316406 C 8.397369384765625 89.98493957519531 8.35040283203125 89.98822021484375 8.303665161132813 89.98822021484375 C 8.064384460449219 89.98822021484375 7.831214904785156 89.90226745605469 7.648178100585938 89.74336242675781 C 7.429374694824219 89.55344390869141 7.303718566894531 89.27794647216797 7.303718566894531 88.98821258544922 L 7.303718566894531 15.74093627929688 C 7.303718566894531 15.24293518066406 7.670127868652344 14.82083892822266 8.163192749023438 14.7508544921875 L 119.0649795532227 -0.990081787109375 C 119.1118469238281 -0.996734619140625 119.1588134765625 -1.000015258789063 119.2055511474609 -1.000015258789063 Z" stroke="none" fill="#000"/>
      </g>
      <path id="패스_20" data-name="패스 20" d="M6.741-.12c3.608,0,6.532,3.356,6.532,7.495s-2.989,7.495-6.6,7.495S0,11.609,0,7.469,3.133-.12,6.741-.12Z" transform="translate(90.079 37.12)" fill="#fff"/>
    </g>
  </g>
</svg>
