<svg xmlns="http://www.w3.org/2000/svg" width="707" height="707" viewBox="0 0 707 707">
  <g id="write_hand" transform="matrix(0.995, 0.105, -0.105, 0.995, -6812.255, 260.879)">
    <rect id="사각형_33" data-name="사각형 33" width="707" height="707" transform="matrix(0.995, -0.105, 0.105, 0.995, 6747.667, -971.524)" fill="none"/>
    <path id="background" d="M224.835.077c-86.816,2.9-136.365,20.817-195,102.086S7.132,249.13,67.3,302.8,68.364,416.928,176.45,482.483s292.015-22.016,309.593-140.813-36.96-145.193-80.584-205S311.65-2.825,224.835.077Z" transform="translate(7409.03 -905.993) rotate(89)" fill="#edf0f3"/>
    <g id="card" transform="translate(6991.371 -784.789) rotate(9)">
      <g id="패스_63" data-name="패스 63" transform="translate(0)" fill="#fff" stroke-linecap="round">
        <path d="M 376.9113464355469 216.7249755859375 L 2.141558647155762 216.7249755859375 C 0.1336087435483932 216.7249755859375 -1.499991297721863 215.0913848876953 -1.499991297721863 213.0834350585938 L -1.499991297721863 2.141530275344849 C -1.499991297721863 0.1335801631212234 0.1336087435483932 -1.499969840049744 2.141558647155762 -1.499969840049744 L 376.9113464355469 -1.499969840049744 C 378.9193115234375 -1.499969840049744 380.5529174804688 0.1335801631212234 380.5529174804688 2.141530275344849 L 380.5529174804688 213.0834350585938 C 380.5529174804688 215.0913848876953 378.9193115234375 216.7249755859375 376.9113464355469 216.7249755859375 Z" stroke="none"/>
        <path d="M 2.141571044921875 -1.52587890625e-05 C 0.95880126953125 -1.52587890625e-05 0 0.9587860107421875 0 2.141525268554688 L 0 213.0834350585938 C 0 214.2661285400391 0.95880126953125 215.2249298095703 2.141571044921875 215.2249298095703 L 376.9113464355469 215.2249298095703 C 378.0941467285156 215.2249298095703 379.0529174804688 214.2661285400391 379.0529174804688 213.0834350585938 L 379.0529174804688 2.141525268554688 C 379.0529174804688 0.9587860107421875 378.0941467285156 -1.52587890625e-05 376.9113464355469 -1.52587890625e-05 L 2.141571044921875 -1.52587890625e-05 M 2.141571044921875 -3.000015258789063 L 376.9113464355469 -3.000015258789063 C 379.7463989257813 -3.000015258789063 382.0529174804688 -0.6935272216796875 382.0529174804688 2.141525268554688 L 382.0529174804688 213.0834350585938 C 382.0529174804688 215.9184875488281 379.7463989257813 218.2249298095703 376.9113464355469 218.2249298095703 L 2.141571044921875 218.2249298095703 C -0.6934814453125 218.2249298095703 -3 215.9184875488281 -3 213.0834350585938 L -3 2.141525268554688 C -3 -0.6935272216796875 -0.6934814453125 -3.000015258789063 2.141571044921875 -3.000015258789063 Z" stroke="none" fill="#2b3039"/>
      </g>
      <rect id="사각형_27" data-name="사각형 27" width="71.742" height="18.203" rx="9" transform="translate(18.203 21.739)" fill="#2b3039"/>
      <rect id="사각형_28" data-name="사각형 28" width="126.351" height="18.203" rx="9" transform="translate(102.794 21.739)" fill="#2b3039"/>
      <rect id="사각형_30" data-name="사각형 30" width="85.662" height="10.708" rx="5.354" transform="translate(273.047 165.222)" fill="#dbdfe6"/>
      <rect id="사각형_31" data-name="사각형 31" width="124.209" height="10.708" rx="5.354" transform="translate(234.499 184.496)" fill="#dbdfe6"/>
      <rect id="사각형_29" data-name="사각형 29" width="41.76" height="18.203" rx="9" transform="translate(241.994 21.739)" fill="#2b3039"/>
    </g>
    <g id="그룹_14" data-name="그룹 14" transform="translate(41.14 8.748)">
      <g id="hand" transform="translate(6822.908 -735.448)">
        <path id="패스_56" data-name="패스 56" d="M6839.586-658.9s17.668-7.133,54.455-25.525,113.723-54.745,130.381-57.414,46.967,8.723,61.578,15.188,21.894,12.233,21.853,24.028-5.875,23.861-5.875,23.861l-18.793,30.054,8.2,22.253s.355,6.824-9.778,12.528-41.071,17.522-53.468,15-3.3-15.827-3.3-15.827-13.348,5.778-20.114,3.727-2.627-13.358-2.627-13.358-3.06,2.743-10.457,4.716S6972.5-616.5,6972.5-616.5A80.54,80.54,0,0,1,6948.144-605c-13.762,3.66-30.686,3.133-30.686,3.133l-67.624,19.674Z" transform="translate(-6821.728 746.72)" fill="#fbfbfb" stroke="#2b3039" stroke-linejoin="round" stroke-width="3"/>
        <path id="패스_57" data-name="패스 57" d="M7059.9-651.206s.4,5.207-8.788,11.194-27.979,12.754-27.979,12.754" transform="translate(-6808.737 753.48)" fill="#fff" stroke="#2b3039" stroke-linecap="round" stroke-linejoin="round" stroke-width="3"/>
        <path id="패스_58" data-name="패스 58" d="M6991.153-631.464l38.342-18.248" transform="translate(-6811 753.586)" fill="#fff" stroke="#2b3039" stroke-linecap="round" stroke-width="3"/>
        <path id="패스_59" data-name="패스 59" d="M7061.094-698.8h-20.629l-15.444,10.494,27.894,4.982" transform="translate(-6808.604 750.111)" fill="#fbfbfb" stroke="#2b3039" stroke-linecap="round" stroke-linejoin="round" stroke-width="3"/>
        <path id="패스_61" data-name="패스 61" d="M6616.469-864.325s-3.848,23.277.538,43.273,17.005,36.712,17.005,36.712l46.517-11.583a159.978,159.978,0,0,1-12.96-37.928c-4.071-20.72-3.326-44.951-3.326-44.951Z" transform="translate(-6614.908 951.527)" fill="#d9dbdf" stroke="#2b3039" stroke-linecap="round" stroke-linejoin="round" stroke-width="3"/>
        <path id="패스_62" data-name="패스 62" d="M6789.274-833.109c-1.39-.214-12.207,1.5-33.408-1.5" transform="translate(-6638.125 963.221)" fill="none" stroke="#2b3039" stroke-linecap="round" stroke-linejoin="round" stroke-width="3"/>
      </g>
      <g id="패스_77" data-name="패스 77" transform="translate(6996.295 -779.22) rotate(-31)" fill="#e4e6e9" stroke-linecap="round" stroke-linejoin="round">
        <path d="M 7.434343814849854 225.0684356689453 L 6.02378511428833 221.9511413574219 L -1.366626858711243 205.6183776855469 L -1.500009179115295 205.3235931396484 L -1.500009179115295 205 L -1.500009179115295 -5.170036843082926e-07 L -1.500009179115295 -1.500000476837158 L -9.21451373869786e-06 -1.500000476837158 L 14.32275581359863 -1.500000476837158 L 15.82275581359863 -1.500000476837158 L 15.82275581359863 -5.170036843082926e-07 L 15.82275581359863 205 L 15.82275581359863 205.3051452636719 L 15.70351982116699 205.5860595703125 L 8.771166801452637 221.9188232421875 L 7.434343814849854 225.0684356689453 Z" stroke="none"/>
        <path d="M -1.9073486328125e-06 0 L -1.9073486328125e-06 205 L 7.390404224395752 221.332763671875 L 14.3227481842041 205 L 14.3227481842041 0 L -1.9073486328125e-06 0 M -1.9073486328125e-06 -3 L 14.3227481842041 -3 C 15.97959136962891 -3 17.3227481842041 -1.656829833984375 17.3227481842041 0 L 17.3227481842041 205 C 17.3227481842041 205.4027557373047 17.24165344238281 205.8013763427734 17.08428001403809 206.1721343994141 L 10.15193557739258 222.5048828125 C 9.686592102050781 223.6012878417969 8.61668586730957 224.3185424804688 7.425685405731201 224.3325347900391 C 7.413836479187012 224.3326721191406 7.401957988739014 224.3327484130859 7.390130043029785 224.3327484130859 C 6.213086128234863 224.3327484130859 5.143331527709961 223.6438598632813 4.657185554504395 222.5695037841797 L -2.733221054077148 206.2367553710938 C -2.909065246582031 205.8481597900391 -3.000001907348633 205.4265441894531 -3.000001907348633 205 L -3.000001907348633 0 C -3.000001907348633 -1.656829833984375 -1.656846046447754 -3 -1.9073486328125e-06 -3 Z" stroke="none" fill="#2b3039"/>
      </g>
      <path id="finger" d="M6842.826-897.73l82.518,10.5s15.2.4,14.479,12.342-18.46,14.8-18.46,14.8l-70.664,5.119" transform="translate(190.936 223.305)" fill="#fbfbfb" stroke="#2b3039" stroke-linecap="round" stroke-linejoin="round" stroke-width="3"/>
    </g>
  </g>
</svg>
